<svg width="11" height="11" viewBox="0 0 11 11" fill="none" xmlns="http://www.w3.org/2000/svg">
<path d="M3.65503 2.71054H4.68947V5.29665H7.27558V6.33109H3.65503V2.71054Z" fill="white"/>
<path fill-rule="evenodd" clip-rule="evenodd" d="M10.3789 5.29667C10.3789 8.15329 8.06332 10.4689 5.20671 10.4689C2.35009 10.4689 0.0344849 8.15329 0.0344849 5.29667C0.0344849 2.44005 2.35009 0.124451 5.20671 0.124451C8.06332 0.124451 10.3789 2.44005 10.3789 5.29667ZM9.34448 5.29667C9.34448 6.39408 8.90854 7.44654 8.13256 8.22252C7.35657 8.9985 6.30411 9.43445 5.20671 9.43445C4.1093 9.43445 3.05684 8.9985 2.28086 8.22252C1.50487 7.44654 1.06893 6.39408 1.06893 5.29667C1.06893 4.19926 1.50487 3.14681 2.28086 2.37082C3.05684 1.59484 4.1093 1.15889 5.20671 1.15889C6.30411 1.15889 7.35657 1.59484 8.13256 2.37082C8.90854 3.14681 9.34448 4.19926 9.34448 5.29667Z" fill="white"/>
</svg>
