<svg width="14" height="14" viewBox="0 0 14 14" fill="none" xmlns="http://www.w3.org/2000/svg">
<path d="M11.6493 2.05584C9.13779 -0.455751 5.07225 -0.456152 2.56031 2.05584C0.0486891 4.56744 0.0483128 8.63292 2.56031 11.1449C5.07185 13.6565 9.13739 13.6569 11.6493 11.1449C14.161 8.6333 14.1613 4.56781 11.6493 2.05584ZM11.3807 10.2287C11.0804 9.96023 10.7592 9.7226 10.4207 9.51781C10.6444 8.7448 10.777 7.89416 10.8084 7.00993H12.6979C12.6125 8.2018 12.1545 9.31985 11.3807 10.2287ZM1.51173 7.00993H3.40126C3.4326 7.89416 3.56518 8.7448 3.78896 9.51781C3.45039 9.7226 3.12918 9.96023 2.8289 10.2287C2.05511 9.31985 1.59719 8.2018 1.51173 7.00993ZM2.82892 2.97199C3.12921 3.24051 3.45041 3.47814 3.78898 3.68293C3.5652 4.45593 3.43262 5.30657 3.40129 6.1908H1.51173C1.59719 4.99896 2.05511 3.88091 2.82892 2.97199ZM6.69527 3.76758C6.02732 3.71981 5.38327 3.55529 4.7862 3.28389C5.13345 2.38969 5.7736 1.31721 6.69527 1.05143V3.76758ZM6.69527 4.58824V6.19083H4.22074C4.24909 5.44284 4.35507 4.72458 4.53133 4.06738C5.20985 4.364 5.93958 4.54114 6.69527 4.58824ZM6.69527 7.00993V8.61252C5.93958 8.65962 5.20985 8.83676 4.53133 9.13337C4.35507 8.47618 4.24909 7.75792 4.22074 7.00993H6.69527ZM6.69527 9.43318V12.1493C5.77365 11.8835 5.1335 10.8112 4.7862 9.91687C5.38327 9.64547 6.02732 9.48095 6.69527 9.43318ZM7.51437 9.43318C8.18233 9.48095 8.82637 9.64547 9.42344 9.91687C9.07617 10.8111 8.43604 11.8835 7.51437 12.1493V9.43318ZM7.51437 8.61252V7.00993H9.98891C9.96055 7.75792 9.85457 8.47618 9.67831 9.13337C8.99979 8.83676 8.27007 8.65962 7.51437 8.61252ZM7.51437 6.19083V4.58824C8.27007 4.54114 8.99979 4.364 9.67831 4.06738C9.85457 4.72458 9.96055 5.44284 9.98891 6.19083H7.51437ZM7.51437 3.76758V1.05145C8.43604 1.31723 9.07619 2.38972 9.42344 3.28391C8.82637 3.55529 8.18233 3.71981 7.51437 3.76758ZM9.35399 1.46035C9.87826 1.68992 10.3674 2.00122 10.8058 2.38746C10.5971 2.57147 10.3769 2.73832 10.1469 2.88754C9.94274 2.38192 9.68188 1.89055 9.35399 1.46035ZM4.06267 2.88754C3.83271 2.73832 3.61252 2.57147 3.40379 2.38746C3.84225 2.00122 4.33136 1.68992 4.85562 1.46035C4.52774 1.8906 4.26688 2.38197 4.06267 2.88754ZM4.06269 10.3132C4.26688 10.8188 4.52779 11.3102 4.85565 11.7404C4.33138 11.5108 3.84227 11.1995 3.40382 10.8133C3.61252 10.6293 3.83274 10.4624 4.06269 10.3132ZM10.1469 10.3132C10.3769 10.4624 10.5971 10.6293 10.8058 10.8133C10.3674 11.1995 9.87826 11.5108 9.35399 11.7404C9.68185 11.3102 9.94274 10.8188 10.1469 10.3132ZM10.8084 6.19083C10.777 5.3066 10.6445 4.45593 10.4207 3.68295C10.7593 3.47816 11.0804 3.24053 11.3807 2.97202C12.1545 3.88091 12.6125 4.99896 12.6979 6.19083H10.8084Z" fill="white"/>
</svg>
