<?xml version="1.0" encoding="utf-8"?><svg viewBox="0 0 101 32" xmlns="http://www.w3.org/2000/svg" xmlns:xlink="http://www.w3.org/1999/xlink"><style>:root>svg{display:none}:root>svg:target{display:block}</style><svg fill="none" viewBox="0 0 13 13" id="css--calendar" xmlns="http://www.w3.org/2000/svg"><g clip-path="url(#aclip0_2_163)"><path d="M10.455 1.592h-.522V.546H8.887v1.046H3.66V.546H2.614v1.046H2.09c-.575 0-1.046.47-1.046 1.045v8.365c0 .575.471 1.045 1.046 1.045h8.364c.575 0 1.046-.47 1.046-1.045V2.637c0-.575-.47-1.045-1.046-1.045zm0 9.41H2.091V4.206h8.364v6.796z" fill="#fff"/></g><defs><clipPath id="aclip0_2_163"><path fill="#fff" transform="translate(0 .023)" d="M0 0h12.547v12.547H0z"/></clipPath></defs></svg><svg fill="none" viewBox="0 0 11 11" id="css--clock" xmlns="http://www.w3.org/2000/svg"><path d="M3.655 2.71h1.034v2.587h2.587V6.33H3.655V2.71z" fill="#fff"/><path fill-rule="evenodd" clip-rule="evenodd" d="M10.379 5.297a5.172 5.172 0 11-10.344 0 5.172 5.172 0 0110.344 0zm-1.035 0a4.138 4.138 0 11-8.275 0 4.138 4.138 0 018.275 0z" fill="#fff"/></svg><svg fill="none" viewBox="0 0 101 32" id="css--logo" xmlns="http://www.w3.org/2000/svg"><path fill-rule="evenodd" clip-rule="evenodd" d="M21.5 15.371c-.101-.08-.208-.16-.315-.24a14.29 14.29 0 01-.314-.24 7.535 7.535 0 00-1.236-3.111c0 .412-.045 1.144-.157 2.104l-.03.215c-.036.264-.075.55-.128.837a27.01 27.01 0 01-.561 2.47v.001c-.068.252-.135.503-.225.755v-.618c.023-.526.023-1.052.023-1.578s0-1.052-.023-1.556c0-.389-.022-.8-.045-1.19a56.423 56.423 0 00-.224-2.904s-.023-.206-.045-.297l-.068-.48 1.46-.504c.45.823 1.281 1.418 2.247 1.51.045 0 .096.005.146.011.05.006.101.012.146.012a2.93 2.93 0 002.92-2.974c0-.206-.022-.412-.067-.595a2.96 2.96 0 00-1.932-2.218 3.14 3.14 0 00-.943-.16c-1.618 0-2.92 1.326-2.92 2.973 0 .183.022.366.044.549-.294.1-.589.212-.892.327-.113.043-.227.087-.344.13-.786-5.1-2.38-8.6-4.2-8.6-1.82 0-3.415 3.477-4.202 8.578-4.717-1.853-8.469-2.196-9.39-.595-.921 1.601 1.235 4.735 5.19 8.006C1.46 19.237-.697 22.347.201 23.97c.921 1.624 4.673 1.281 9.413-.572C10.402 28.5 11.997 32 13.816 32c1.82 0 3.415-3.477 4.201-8.578 4.718 1.853 8.47 2.196 9.391.595.966-1.647-1.213-4.78-5.145-8.028 3.954-3.248 6.111-6.36 5.212-7.983-.314-.55-.943-.87-1.82-.984.046.229.09.458.09.71 0 .274-.044.548-.112.8.158.091.27.206.337.366.697 1.258-1.145 3.774-4.47 6.473zm-15.973.71a.458.458 0 00-.113-.092c.023.022.068.068.113.091zm8.267-.504h.337c.247 0 .427-.046.517-.16.09-.115.157-.298.18-.595 0-.06.006-.114.012-.165.005-.046.01-.09.01-.132v-.138a.311.311 0 00-.135-.251c-.09-.069-.225-.092-.404-.092h-.36l-.157 1.533zm7.391-8.715l-.135 1.304c0 .114 0 .206.09.274v.115c0 .137.023.251.068.343a.59.59 0 00.157.251c.09.069.18.115.292.16.112.046.247.07.404.07.18 0 .36-.047.494-.092a.69.69 0 00.337-.23.863.863 0 00.203-.342c.045-.137.067-.298.09-.458l.022-.297h-.696l-.045.343c-.023.046-.023.114-.023.137 0 .01-.004.023-.008.039a.28.28 0 00-.014.076.25.25 0 00-.02.058c-.007.023-.013.043-.025.056a.317.317 0 01-.068.092c-.017.035-.035.043-.063.056a.531.531 0 00-.026.012c-.045.023-.09.023-.135.023-.135 0-.202-.046-.247-.137a.584.584 0 01-.045-.229v-.183l.157-1.624c0-.023.006-.046.011-.069a.261.261 0 00.011-.068c0-.046 0-.092.023-.137.01-.02.015-.04.02-.059.007-.023.012-.043.025-.056.022-.046.045-.068.067-.091.018-.036.035-.044.064-.056l.026-.013c.045-.023.09-.023.135-.023h.09c.011 0 .022.006.034.012a.078.078 0 00.033.011l.045.046c0 .011.006.017.011.023a.027.027 0 01.011.023c.023.022.023.045.023.068v.343l-.045.343h.719l.045-.32V6.45c0-.091 0-.16-.023-.228a.811.811 0 00-.134-.32.498.498 0 00-.292-.23 1.47 1.47 0 00-.472-.068c-.202 0-.382.046-.517.091-.157.07-.27.138-.36.252-.09.114-.157.252-.201.389-.068.16-.09.32-.113.526zM1.775 8.83c.719-1.235 3.774-.892 7.75.686a9.694 9.694 0 00-.09.8 7.461 7.461 0 00-2.021 2.631c.36-.205.988-.526 1.864-.892.186-.087.39-.165.601-.246.12-.046.243-.093.366-.143a27.294 27.294 0 012.38-.754c.124-.035.248-.063.371-.092a8.63 8.63 0 00.371-.091s.157-.092.494-.252c-.337.183-.674.366-1.033.549a7.6 7.6 0 00-.213.115 4.595 4.595 0 01-.349.182c-.045.023-.09.046-.157.092a5.9 5.9 0 00-.326.183 5.965 5.965 0 01-.325.183c-.175.106-.349.21-.521.311-.274.162-.543.321-.805.49-.09.045-.157.09-.247.16l-.202.137-.54.343c-.74.48-1.55 1.052-2.336 1.647a7.764 7.764 0 00-.45.343c-.01 0-.016.006-.022.011-.005.006-.01.012-.022.012a.584.584 0 01-.067.057.571.571 0 00-.068.057c-3.28-2.722-5.122-5.26-4.403-6.519zm14.086 5.696c0 .091 0 .205-.023.32-.022.274-.09.526-.18.709a1.05 1.05 0 01-.359.457 1.448 1.448 0 01-.494.252 2.46 2.46 0 01-.607.069h-.494l-.247 2.378h-1.078l.561-5.443h1.64c.876 0 1.28.411 1.28 1.258zm-6.695-.149c.006-.006.011-.011.023-.011-.023 0-.045.022-.045.022a.309.309 0 00-.09.07.313.313 0 00.09-.07c.01 0 .017-.005.022-.011zm4.695 15.817c-1.415 0-2.65-2.905-3.302-7.182.112-.046.23-.098.348-.149.118-.051.236-.103.348-.149.81.32 1.685.504 2.606.504.225 0 .45 0 .674-.023-.36-.229-.966-.618-1.707-1.19-.106-.088-.221-.177-.34-.27h-.001c-.158-.122-.324-.25-.49-.393a23.919 23.919 0 01-1.82-1.716 6.174 6.174 0 01-.517-.571 36.658 36.658 0 00.573.354.415.415 0 00.056.034c.235.155.478.3.724.448.155.093.31.187.467.284.45.275.899.527 1.348.755.168.092.343.183.517.275.174.091.348.183.516.274.517.275 1.034.526 1.55.778.169.08.343.16.517.24.174.08.348.16.517.24l.194.078c.169.067.347.137.525.22-.652 4.277-1.887 7.159-3.303 7.159zm-2.606-7.48l-.254-.109c.082.038.166.075.254.11zm-.254-.109a5.102 5.102 0 01-.554-.28l.16.083c.131.068.26.134.394.197zm-1.06-.383a6.735 6.735 0 01-.438.172c-3.976 1.555-7.054 1.921-7.773.663-.696-1.258 1.146-3.774 4.47-6.473.102.08.209.16.315.24.107.08.214.16.315.24a7.17 7.17 0 002.583 4.552c.225.183.472.366.72.527-.066.026-.13.053-.192.079zm7.268-12.934c.017.114.034.228.045.343a.3.3 0 00.01.063c.005.028.012.06.012.097 0-.069 0-.115-.022-.16-.023-.252-.045-.48-.068-.709-.651-4.278-1.887-7.183-3.302-7.183s-2.651 2.882-3.303 7.16c-.044.229-.09.457-.112.709.27-.137.54-.275.831-.389a7.29 7.29 0 012.561-.48c.921 0 1.798.183 2.606.503.113-.046.23-.097.349-.149.117-.051.236-.103.348-.148.011.114.028.228.045.343zm8.739 13.815c-.72 1.235-3.774.892-7.75-.686.044-.274.067-.526.09-.8a7.32 7.32 0 002.583-4.53c.045-.297.067-.617.09-.937.126.112.264.214.397.312l.164.122c3.303 2.745 5.145 5.261 4.426 6.52z" fill="url(#cpaint0_linear_1_177)"/><path fill-rule="evenodd" clip-rule="evenodd" d="M41.985 24.303H38.84l-.556 1.5h-2.837l3.618-8.606h2.742l3.618 8.606H42.54l-.555-1.5zm-.769-2.09l-.804-2.164-.803 2.164h1.607zm6.455 3.215a4.18 4.18 0 01-1.65-1.598c-.397-.684-.596-1.461-.596-2.33s.199-1.645.597-2.33a4.18 4.18 0 011.65-1.598c.7-.381 1.489-.572 2.364-.572.803 0 1.52.148 2.151.443.63.295 1.15.72 1.56 1.278l-1.76 1.636c-.513-.673-1.116-1.009-1.81-1.009-.583 0-1.052.195-1.407.584-.354.39-.532.912-.532 1.568s.178 1.178.532 1.568c.355.389.824.584 1.407.584.694 0 1.297-.336 1.81-1.009l1.76 1.636c-.41.557-.93.983-1.56 1.278-.63.296-1.348.443-2.151.443-.875 0-1.663-.19-2.365-.572zm12.401-1.125h-3.144l-.556 1.5h-2.837l3.617-8.606h2.743l3.617 8.606h-2.884l-.556-1.5zm-.768-2.09L58.5 20.05l-.804 2.164h1.608zm4.658-5.016h4.078c.922 0 1.736.174 2.441.522a3.874 3.874 0 011.644 1.494c.39.648.585 1.41.585 2.287s-.195 1.64-.585 2.287a3.874 3.874 0 01-1.644 1.494c-.705.348-1.518.522-2.44.522h-4.08v-8.606zm3.96 6.344c.6 0 1.078-.178 1.437-.535.358-.356.538-.858.538-1.506s-.18-1.15-.538-1.506c-.36-.357-.838-.535-1.437-.535h-1.17v4.082h1.17zm12.685.074v2.188h-6.88v-8.606h6.726v2.188H76.47v1.008h3.5v2.09h-3.5v1.132h4.138zm8.465 2.188l-.024-3.922-1.797 3.148h-1.23l-1.796-3.013v3.787h-2.542v-8.606h2.293l2.696 4.586 2.624-4.586h2.294l.023 8.606h-2.541zm8.807-3.123v3.123h-2.79v-3.16l-3.12-5.446h2.943l1.69 2.975 1.703-2.975H101l-3.121 5.483zM39.94 6.688c.481.42.723.996.723 1.73 0 .735-.242 1.31-.724 1.726-.482.416-1.148.624-1.998.624h-1.79v2.173h-.704V6.059h2.494c.85 0 1.516.21 1.998.63zm-.505 2.994c.349-.298.523-.72.523-1.263 0-.558-.174-.985-.523-1.283-.35-.299-.854-.448-1.514-.448h-1.77v3.441h1.77c.66 0 1.165-.149 1.514-.447zm3.964 2.86a3.283 3.283 0 01-1.257-1.253A3.56 3.56 0 0141.69 9.5c0-.662.15-1.258.452-1.79a3.29 3.29 0 011.257-1.253A3.565 3.565 0 0145.193 6c.66 0 1.254.15 1.784.452.53.302.947.72 1.251 1.254.305.534.457 1.132.457 1.794 0 .662-.152 1.26-.457 1.794a3.291 3.291 0 01-1.251 1.254 3.543 3.543 0 01-1.784.452c-.66 0-1.258-.152-1.794-.457zm3.221-.56a2.628 2.628 0 001-1.022c.24-.436.361-.923.361-1.46 0-.537-.12-1.024-.362-1.46a2.627 2.627 0 00-.999-1.022 2.8 2.8 0 00-1.427-.37c-.527 0-1.005.124-1.433.37a2.651 2.651 0 00-1.009 1.022 2.935 2.935 0 00-.366 1.46c0 .537.122 1.024.366 1.46.245.436.581.777 1.01 1.022.427.246.905.37 1.431.37a2.8 2.8 0 001.428-.37zM59.211 6.06l-2.246 6.882h-.742l-1.951-5.87-1.96 5.87h-.734L49.332 6.06h.724l1.922 5.918 1.99-5.918h.656l1.96 5.948 1.951-5.948h.676zm5.996 6.253v.629h-4.711V6.059h4.568v.63H61.2v2.447h3.445v.62H61.2v2.556h4.007zm6.205.629l-1.523-2.212c-.171.02-.349.03-.533.03h-1.79v2.182h-.703V6.059h2.493c.85 0 1.517.21 1.999.63.482.419.723.995.723 1.73 0 .537-.132.99-.395 1.361-.263.37-.64.638-1.128.802l1.628 2.359h-.771zm-.562-3.254c.35-.302.524-.724.524-1.268 0-.558-.174-.985-.524-1.283-.349-.299-.853-.448-1.513-.448h-1.77v3.451h1.77c.66 0 1.164-.15 1.513-.452zm4.002 2.86a3.26 3.26 0 01-1.247-1.253 3.586 3.586 0 01-.452-1.794c0-.662.15-1.26.452-1.794a3.25 3.25 0 011.252-1.254A3.57 3.57 0 0176.647 6a3.6 3.6 0 011.37.256c.418.17.774.42 1.066.747l-.448.462c-.52-.544-1.177-.816-1.97-.816-.527 0-1.005.124-1.437.373-.431.25-.77.59-1.013 1.023a2.908 2.908 0 00-.367 1.455 2.9 2.9 0 00.367 1.455c.244.433.582.774 1.013 1.022.432.25.91.374 1.437.374.8 0 1.456-.275 1.97-.826l.447.462a2.881 2.881 0 01-1.07.752 3.57 3.57 0 01-1.375.261 3.54 3.54 0 01-1.785-.452zm6.71-.004a3.281 3.281 0 01-1.256-1.254 3.56 3.56 0 01-.453-1.789c0-.662.151-1.258.453-1.79.3-.53.72-.948 1.255-1.253A3.567 3.567 0 0183.356 6c.66 0 1.254.15 1.784.452a3.3 3.3 0 011.252 1.254c.304.534.456 1.132.456 1.794 0 .662-.152 1.26-.456 1.794a3.295 3.295 0 01-1.252 1.254 3.545 3.545 0 01-1.784.452c-.66 0-1.258-.152-1.795-.457zm3.22-.56a2.626 2.626 0 001-1.023c.242-.436.362-.923.362-1.46 0-.537-.12-1.024-.362-1.46a2.625 2.625 0 00-1-1.022 2.8 2.8 0 00-1.426-.37c-.527 0-1.004.124-1.433.37a2.65 2.65 0 00-1.009 1.022 2.936 2.936 0 00-.366 1.46c0 .537.122 1.024.366 1.46.245.436.58.777 1.01 1.022.428.246.905.37 1.432.37a2.8 2.8 0 001.427-.37zm3.646-5.924h2.712c.704 0 1.327.146 1.866.438a3.13 3.13 0 011.256 1.219c.298.52.447 1.115.447 1.784 0 .668-.149 1.263-.447 1.784a3.134 3.134 0 01-1.256 1.22c-.54.291-1.162.437-1.866.437h-2.712V6.059zm2.675 6.253c.583 0 1.094-.12 1.532-.359a2.56 2.56 0 001.018-.993c.241-.423.361-.91.361-1.46 0-.55-.12-1.037-.36-1.46a2.562 2.562 0 00-1.02-.993c-.437-.24-.948-.359-1.531-.359h-1.97v5.624h1.97zm9.897 0v.629h-4.71V6.059h4.567v.63h-3.864v2.447h3.445v.62h-3.445v2.556H101z" fill="#fff"/><defs><linearGradient id="cpaint0_linear_1_177" x1="27.688" y1="-.02" x2=".031" y2="-.02" gradientUnits="userSpaceOnUse"><stop stop-color="#4252D1"/><stop offset="1" stop-color="#609BDB"/></linearGradient></defs></svg><svg fill="none" viewBox="0 0 14 14" id="css--world" xmlns="http://www.w3.org/2000/svg"><path d="M11.65 2.056a6.423 6.423 0 00-9.09 0 6.423 6.423 0 000 9.089 6.423 6.423 0 009.09 0 6.423 6.423 0 000-9.09zm-.27 8.173a6.45 6.45 0 00-.96-.711 10.37 10.37 0 00.388-2.508h1.89a5.556 5.556 0 01-1.317 3.219zm-9.868-3.22h1.89c.03.885.163 1.736.387 2.509a6.45 6.45 0 00-.96.71A5.557 5.557 0 011.512 7.01zm1.317-4.037c.3.269.621.506.96.71a10.394 10.394 0 00-.388 2.509h-1.89A5.557 5.557 0 012.83 2.972zm3.866.796a5.564 5.564 0 01-1.909-.484c.347-.894.988-1.967 1.91-2.233v2.717zm0 .82v1.603H4.221a9.65 9.65 0 01.31-2.124 6.384 6.384 0 002.164.521zm0 2.422v1.603a6.384 6.384 0 00-2.164.52 9.65 9.65 0 01-.31-2.123h2.474zm0 2.423v2.716c-.921-.265-1.562-1.338-1.909-2.232a5.564 5.564 0 011.91-.484zm.82 0a5.564 5.564 0 011.908.484c-.347.894-.987 1.966-1.909 2.232V9.433zm0-.82V7.01h2.474a9.65 9.65 0 01-.31 2.123 6.384 6.384 0 00-2.165-.52zm0-2.422V4.588a6.384 6.384 0 002.163-.52 9.65 9.65 0 01.31 2.123H7.515zm0-2.423V1.05c.921.266 1.561 1.339 1.908 2.233a5.565 5.565 0 01-1.909.484zM9.353 1.46c.524.23 1.013.541 1.452.927a5.64 5.64 0 01-.66.5 6.164 6.164 0 00-.792-1.427zm-5.29 1.428c-.23-.15-.45-.317-.66-.5a5.583 5.583 0 011.453-.928c-.328.43-.59.922-.793 1.428zm0 7.425c.204.506.465.997.793 1.427a5.585 5.585 0 01-1.452-.927 5.63 5.63 0 01.659-.5zm6.084 0c.23.15.45.316.659.5a5.584 5.584 0 01-1.452.927c.328-.43.589-.921.793-1.427zm.661-4.122a10.396 10.396 0 00-.387-2.508c.338-.205.66-.442.96-.711a5.557 5.557 0 011.317 3.219h-1.89z" fill="#fff"/></svg></svg>